<svg width="64" height="64" fill="none" xmlns="http://www.w3.org/2000/svg"><rect x="1" y="1" width="62" height="62" rx="31" fill="#F5F5F5" fill-opacity=".4" stroke="#fff" stroke-width="2"/><path fill-rule="evenodd" clip-rule="evenodd" d="M23 19.18c0-.652.528-1.18 1.18-1.18H26v3h-3v-1.82ZM23 23h3v3h-3v-3Zm0 5h3v3h-3v-3Zm0 5h3v3h-1.82A1.18 1.18 0 0 1 23 34.82V33Zm5 3v-8h8v8h-8Zm10 0v-3h3v1.82A1.18 1.18 0 0 1 39.82 36H38Zm3-5h-3v-3h3v3Zm0-5h-3v-3h3v3Zm0-5h-3v-3h1.82c.652 0 1.18.528 1.18 1.18V21Zm-5-3v8h-8v-8h8Zm1-2h2.82A3.18 3.18 0 0 1 43 19.18v15.64A3.18 3.18 0 0 1 39.82 38H24.18A3.18 3.18 0 0 1 21 34.82V19.18A3.18 3.18 0 0 1 24.18 16H37Z" fill="#fff"/><path d="m29 44 3 3 3-3M32 47v-6" stroke="#fff" stroke-width="2" stroke-linecap="round" stroke-linejoin="round"/></svg>